#!OML:ASF X:\für Bonn\!DataBase\2005_08_11_Bastian_Final\c3d\Bastian.ASF
:FULLY-SPECIFIED
:DEGREES
33
root -3.07583 17.2274 2.35967 152.104 -12.4029 -171.448
lowerback 28.2384 -6.01823 4.93404
upperback 10.5786 -9.37254 3.14089
thorax -3.59841 -5.87807 3.57575
lowerneck -7.04442 -4.789 -5.03284
upperneck -3.99116 -5.695 7.05913
head 0.33213 -2.61779 2.98042
rclavicle 3.75703e-014 -2.10712e-014
rhumerus -66.3087 42.4209 -120.953
rradius 33.3466
rwrist -37.4924
rhand -37.4588 -3.55766
rfingers 7.12502
rthumb -10.5173 -33.2745
lclavicle 3.75703e-014 -2.10712e-014
lhumerus 20.009 -20.1565 83.0752
lradius 94.97
lwrist -12.3435
lhand -55.8616 -13.4126
lfingers 7.12502
lthumb -28.2039 14.4852
rfemur -57.6343 -10.2945 22.5882
rtibia 122.079
rfoot 10.5039 2.31901
rtoes -14.7284
lfemur 19.1959 -0.214348 -14.3537
ltibia 26.1718
lfoot -10.8351 -9.64545
ltoes -2.38368
34
root -3.08605 17.2243 2.3783 151.426 -12.7631 -171.182
lowerback 29.1655 -6.21852 4.93817
upperback 10.7672 -9.71188 3.18975
thorax -3.78249 -6.10616 3.84813
lowerneck -7.12734 -4.74279 -5.11949
upperneck -4.14881 -5.60414 7.15037
head 0.296596 -2.56483 3.03085
rclavicle -1.01579e-013 4.85035e-014
rhumerus -66.9463 41.8572 -120.956
rradius 33.9078
rwrist -37.6314
rhand -37.3149 -3.25621
rfingers 7.12502
rthumb -10.3784 -32.9801
lclavicle -1.01579e-013 4.85035e-014
lhumerus 21.1415 -20.1345 82.7146
lradius 96.0455
lwrist -12.5205
lhand -56.0236 -13.2202
lfingers 7.12502
lthumb -28.3588 14.652
rfemur -59.935 -11.2846 22.987
rtibia 124.044
rfoot 10.5118 3.33379
rtoes -14.5969
lfemur 19.4738 -0.408904 -14.1845
ltibia 26.6911
lfoot -10.9884 -9.96202
ltoes -2.51282
35
root -3.09342 17.2174 2.39314 150.693 -13.1133 -170.892
lowerback 30.0873 -6.39516 4.9528
upperback 10.9876 -10.0312 3.22571
thorax -3.92339 -6.32894 4.09572
lowerneck -7.18956 -4.71439 -5.13702
upperneck -4.33942 -5.53916 7.22752
head 0.245584 -2.52544 3.06353
rclavicle -1.23843e-013 4.92986e-014
rhumerus -67.5352 41.3205 -121.017
rradius 34.4384
rwrist -37.7906
rhand -37.2572 -2.91094
rfingers 7.12502
rthumb -10.3227 -32.6376
lclavicle -1.23843e-013 4.92986e-014
lhumerus 22.2871 -20.1459 82.3638
lradius 97.0164
lwrist -12.791
lhand -56.1911 -13.049
lfingers 7.12502
lthumb -28.5189 14.7965
rfemur -62.2356 -12.2355 23.4725
rtibia 125.888
rfoot 10.5965 4.32635
rtoes -14.2908
lfemur 19.8209 -0.637273 -13.9971
ltibia 27.1977
lfoot -11.1789 -10.2578
ltoes -2.87365
36
root -3.10003 17.2108 2.40276 149.916 -13.5019 -170.56
lowerback 31.0076 -6.58603 4.97291
upperback 11.2001 -10.3685 3.27655
thorax -4.0608 -6.56229 4.36894
lowerneck -7.24311 -4.68083 -5.16843
upperneck -4.51152 -5.46922 7.28059
head 0.198144 -2.48437 3.09084
rclavicle 1.00784e-013 -3.73715e-014
rhumerus -68.1636 40.8335 -121.127
rradius 34.9499
rwrist -37.9483
rhand -37.1991 -2.58083
rfingers 7.12502
rthumb -10.2668 -32.3103
lclavicle 1.00784e-013 -3.73715e-014
lhumerus 23.4077 -20.1652 82.0189
lradius 97.9506
lwrist -13.1004
lhand -56.3376 -12.86
lfingers 7.12502
lthumb -28.6588 14.9619
rfemur -64.5849 -13.2265 24.0084
rtibia 127.624
rfoot 10.7015 5.22886
rtoes -14.2448
lfemur 20.4395 -0.877106 -13.758
ltibia 27.2026
lfoot -11.1112 -10.5622
ltoes -3.22193
37
root -3.10436 17.2035 2.4064 149.113 -13.9191 -170.258
lowerback 32.2538 -6.80109 5.02102
upperback 11.0668 -10.7089 3.43957
thorax -4.19624 -6.81199 4.48521
lowerneck -7.31774 -4.65634 -5.20066
upperneck -4.64937 -5.41179 7.37103
head 0.167415 -2.44882 3.12984
rclavicle 7.16619e-014 -4.05521e-014
rhumerus -68.6862 40.2456 -121.117
rradius 35.4648
rwrist -37.8799
rhand -37.1253 -2.26506
rfingers 7.12502
rthumb -10.1956 -31.998
lclavicle 7.16619e-014 -4.05521e-014
lhumerus 24.5397 -20.2269 81.6409
lradius 98.8022
lwrist -13.4909
lhand -56.5384 -12.6312
lfingers 7.12502
lthumb -28.8507 15.1581
rfemur -66.9426 -14.2025 24.5399
rtibia 129.295
rfoot 10.7478 5.94448
rtoes -14.1124
lfemur 21.0966 -1.1148 -13.5393
ltibia 27.2065
lfoot -11.032 -10.9289
ltoes -3.34933
38
root -3.1087 17.1969 2.409 148.329 -14.2997 -169.917
lowerback 33.1428 -6.97779 5.02934
upperback 11.2694 -11.0419 3.48721
thorax -4.27255 -7.04836 4.72965
lowerneck -7.3979 -4.59915 -5.11424
upperneck -4.84298 -5.31287 7.37563
head 0.110093 -2.39338 3.11938
rclavicle 5.10877e-014 -3.22031e-014
rhumerus -69.169 39.7043 -121.095
rradius 35.9944
rwrist -37.8517
rhand -37.0581 -1.93552
rfingers 7.12502
rthumb -10.1307 -31.6716
lclavicle 5.10877e-014 -3.22031e-014
lhumerus 25.6834 -20.2784 81.2326
lradius 99.6063
lwrist -13.8577
lhand -56.7193 -12.4757
lfingers 7.12502
lthumb -29.0234 15.284
rfemur -69.3564 -15.0477 25.1886
rtibia 130.831
rfoot 10.7809 6.43692
rtoes -13.8063
lfemur 21.7217 -1.3348 -13.264
ltibia 27.2199
lfoot -10.955 -11.2921
ltoes -3.47928
39
root -3.11349 17.1897 2.41231 147.593 -14.6388 -169.629
lowerback 34.0278 -7.1207 5.02784
upperback 11.437 -11.3193 3.5147
thorax -4.38128 -7.25052 4.94646
lowerneck -7.50343 -4.56952 -5.02547
upperneck -4.9802 -5.25477 7.3864
head 0.0780883 -2.35846 3.10798
rclavicle 3.00165e-014 1.98785e-014
rhumerus -69.6121 39.0947 -121.038
rradius 36.5188
rwrist -37.7988
rhand -36.9801 -1.6177
rfingers 7.12502
rthumb -10.0554 -31.3575
lclavicle 3.00165e-014 1.98785e-014
lhumerus 26.7945 -20.3921 80.8615
lradius 100.361
lwrist -14.2715
lhand -56.8701 -12.3528
lfingers 7.12502
lthumb -29.1674 15.3821
rfemur -71.8243 -15.7027 25.8415
rtibia 132.218
rfoot 10.8058 6.77006
rtoes -13.201
lfemur 22.3187 -1.56139 -13.0605
ltibia 27.2377
lfoot -10.9104 -11.5838
ltoes -3.74838
40
root -3.1178 17.1788 2.41544 146.798 -14.9157 -169.357
lowerback 34.9951 -7.2431 5.02182
upperback 11.6127 -11.5815 3.53025
thorax -4.50194 -7.45126 5.15997
lowerneck -7.67897 -4.53342 -4.89567
upperneck -5.0778 -5.19098 7.34285
head 0.0673164 -2.3201 3.06883
rclavicle 8.78628e-014 -1.19271e-013
rhumerus -70.0513 38.5544 -121.053
rradius 37.0494
rwrist -37.7201
rhand -36.9341 -1.41203
rfingers 7.12502
rthumb -10.0111 -31.1539
lclavicle 8.78628e-014 -1.19271e-013
lhumerus 27.9055 -20.4797 80.5059
lradius 101.037
lwrist -14.6617
lhand -57.0165 -12.32
lfingers 7.12502
lthumb -29.3072 15.3905
rfemur -74.1811 -16.1844 26.513
rtibia 133.432
rfoot 10.7097 7.03508
rtoes -12.5825
lfemur 22.9823 -1.71637 -12.8287
ltibia 27.2662
lfoot -10.8834 -11.9021
ltoes -4.04206
